# xmcd CD database file
#
# Track frame offsets:
#	150
#	19932
#	39857
#
# Disc length: 793 seconds
#
# Revision: 0
# Processed by: cddbd v1.5PL3 Copyright (c) Steve Scherf et al.
# Submitted via: CDex 1.51
#
DISCID=18031703
DTITLE=Something Else - ウソツキ
DYEAR=1900
DGENRE=JPop
TTITLE0=ウソツキ
TTITLE1=Be There
TTITLE2=ウソツキ(Backing Track)
EXTD=
EXTT0=
EXTT1=
EXTT2=
PLAYORDER=
